<svg width="24" height="25" viewBox="0 0 24 25" fill="none" xmlns="http://www.w3.org/2000/svg">
<path fill-rule="evenodd" clip-rule="evenodd" d="M15.6156 11.045C16.1822 9.64528 14.8063 8.24555 13.4303 8.82191L10.8696 9.89452C10.221 10.1662 9.70586 10.6902 9.43877 11.3501L8.38437 13.955C7.81781 15.3547 9.19375 16.7544 10.5697 16.1781L13.1304 15.1055C13.779 14.8338 14.2941 14.3098 14.5612 13.6499L15.6156 11.045ZM13.9766 10.1716C14.1732 10.0893 14.3698 10.2893 14.2888 10.4892L13.2344 13.0941C13.113 13.3941 12.8789 13.6323 12.584 13.7558L10.0234 14.8284C9.82681 14.9107 9.63024 14.7107 9.71118 14.5108L10.7656 11.9059C10.887 11.6059 11.1211 11.3677 11.416 11.2442L13.9766 10.1716Z" fill="#5E5F60"/>
<path fill-rule="evenodd" clip-rule="evenodd" d="M14.9336 2.56995C14.164 2.49999 13.2235 2.49999 12.0337 2.5H11.9663C10.7765 2.49999 9.83602 2.49999 9.06637 2.56995C8.27579 2.64181 7.61455 2.79074 6.98959 3.11687C6.82771 3.20136 6.67004 3.29396 6.51717 3.39434C5.92705 3.78184 5.46964 4.28993 5.01318 4.95049C4.5688 5.59356 4.09856 6.4221 3.50366 7.47032L3.46997 7.52968C2.87506 8.57789 2.40482 9.40643 2.07955 10.1195C1.74544 10.8519 1.5416 11.5089 1.50677 12.2225C1.49774 12.4074 1.49774 12.5926 1.50677 12.7775C1.5416 13.4911 1.74544 14.1481 2.07955 14.8805C2.40481 15.5936 2.87505 16.4221 3.46995 17.4703L3.50364 17.5297C4.09855 18.5779 4.56879 19.4064 5.01318 20.0495C5.46964 20.7101 5.92705 21.2182 6.51717 21.6057C6.67004 21.706 6.8277 21.7986 6.98959 21.8831C7.61454 22.2093 8.27579 22.3582 9.06637 22.4301C9.83601 22.5 10.7765 22.5 11.9663 22.5H12.0337C13.2235 22.5 14.164 22.5 14.9336 22.4301C15.7242 22.3582 16.3855 22.2093 17.0104 21.8831C17.1723 21.7986 17.33 21.706 17.4828 21.6057C18.0729 21.2182 18.5304 20.7101 18.9868 20.0495C19.4312 19.4065 19.9014 18.5779 20.4963 17.5297L20.53 17.4703C21.1249 16.4221 21.5952 15.5936 21.9205 14.8805C22.2546 14.1481 22.4584 13.4911 22.4932 12.7775C22.5023 12.5926 22.5023 12.4074 22.4932 12.2225C22.4584 11.5089 22.2546 10.8519 21.9205 10.1195C21.5952 9.40643 21.1249 8.57788 20.53 7.52966L20.4963 7.47026C19.9014 6.42207 19.4312 5.59355 18.9868 4.95049C18.5304 4.28993 18.0729 3.78184 17.4828 3.39434C17.33 3.29396 17.1723 3.20136 17.0104 3.11687C16.3855 2.79074 15.7242 2.64181 14.9336 2.56995ZM7.64453 4.41562C8.04746 4.20535 8.50934 4.08607 9.19408 4.02383C9.8925 3.96034 10.7691 3.95967 12 3.95967C13.2309 3.95967 14.1075 3.96034 14.8059 4.02383C15.4907 4.08607 15.9525 4.20535 16.3555 4.41562C16.4751 4.47807 16.5917 4.54651 16.7046 4.6207C17.0851 4.87054 17.4176 5.21781 17.813 5.78993C18.2162 6.3735 18.6551 7.14541 19.2705 8.22984C19.886 9.31427 20.3237 10.0868 20.6189 10.7339C20.9083 11.3683 21.0377 11.8348 21.0601 12.2949C21.0668 12.4316 21.0668 12.5684 21.0601 12.7051C21.0377 13.1652 20.9083 13.6317 20.6189 14.2661C20.3237 14.9132 19.886 15.6857 19.2705 16.7702C18.6551 17.8546 18.2162 18.6265 17.813 19.2101C17.4176 19.7822 17.0851 20.1295 16.7046 20.3793C16.5917 20.4535 16.4751 20.5219 16.3555 20.5844C15.9525 20.7947 15.4907 20.9139 14.8059 20.9762C14.1075 21.0397 13.2309 21.0403 12 21.0403C10.7691 21.0403 9.8925 21.0397 9.19408 20.9762C8.50933 20.9139 8.04746 20.7947 7.64453 20.5844C7.52488 20.5219 7.40834 20.4535 7.29535 20.3793C6.91488 20.1295 6.5824 19.7822 6.18704 19.2101C5.78378 18.6265 5.34492 17.8546 4.72946 16.7702C4.114 15.6857 3.67628 14.9132 3.38112 14.2661C3.09173 13.6317 2.96234 13.1652 2.93989 12.7051C2.93322 12.5684 2.93322 12.4316 2.93989 12.2949C2.96234 11.8348 3.09173 11.3683 3.38112 10.7339C3.67628 10.0868 4.114 9.31427 4.72946 8.22984C5.34492 7.14541 5.78378 6.37349 6.18704 5.78993C6.5824 5.21781 6.91488 4.87054 7.29535 4.6207C7.40834 4.54651 7.52488 4.47807 7.64453 4.41562Z" fill="#5E5F60"/>
</svg>
