<svg width="24" height="25" viewBox="0 0 24 25" fill="none" xmlns="http://www.w3.org/2000/svg">
<path fillRule="evenodd" clipRule="evenodd" d="M6.56008 5.3893C4.01778 7.27703 2.74662 8.2209 2.24737 9.61512C2.20732 9.72696 2.1713 9.84027 2.13937 9.95481C1.74142 11.3827 2.22695 12.9099 3.19803 15.9643C4.1691 19.0187 4.65464 20.5459 5.7978 21.462C5.8895 21.5355 5.98381 21.6055 6.08054 21.672C7.28631 22.5 8.85754 22.5 12 22.5C15.1425 22.5 16.7137 22.5 17.9195 21.672C18.0162 21.6055 18.1105 21.5355 18.2022 21.462C19.3454 20.5459 19.8309 19.0187 20.802 15.9643C21.773 12.9099 22.2586 11.3827 21.8606 9.95481C21.8287 9.84027 21.7927 9.72696 21.7526 9.61512C21.2534 8.2209 19.9822 7.27704 17.4399 5.38931C14.8976 3.50158 13.6265 2.5577 12.1747 2.50327C12.0583 2.49891 11.9417 2.49891 11.8253 2.50327C10.3735 2.5577 9.10238 3.50157 6.56008 5.3893ZM10.0934 17.1821C9.6985 17.1821 9.37839 17.5093 9.37839 17.9129C9.37839 18.3164 9.6985 18.6436 10.0934 18.6436H13.9066C14.3015 18.6436 14.6216 18.3164 14.6216 17.9129C14.6216 17.5093 14.3015 17.1821 13.9066 17.1821H10.0934Z" stroke="#1E9C6C" strokeWidth="2" strokeLinecap="round"/>
</svg>
