<svg width="20" height="20" viewBox="0 0 20 20" fill="none" xmlns="http://www.w3.org/2000/svg">
<g clip-path="url(#clip0_1001_27437)">
<path d="M17.4993 3.33317H14.9993V2.49984C14.9993 2.27882 14.9116 2.06686 14.7553 1.91058C14.599 1.7543 14.387 1.6665 14.166 1.6665H5.83268C5.61167 1.6665 5.39971 1.7543 5.24343 1.91058C5.08715 2.06686 4.99935 2.27882 4.99935 2.49984V3.33317H2.49935C2.27834 3.33317 2.06637 3.42097 1.91009 3.57725C1.75381 3.73353 1.66602 3.94549 1.66602 4.1665V6.6665C1.66602 10.2582 3.16518 12.4248 5.68185 12.5098C6.05023 13.143 6.55325 13.6876 7.15532 14.1049C7.75739 14.5222 8.44381 14.8021 9.16602 14.9248V16.6665H7.49935V18.3332H12.4993V16.6665H10.8327V14.9248C11.5547 14.8016 12.2409 14.5214 12.8429 14.1042C13.4449 13.6869 13.948 13.1427 14.3168 12.5098C16.8335 12.4248 18.3327 10.2582 18.3327 6.6665V4.1665C18.3327 3.94549 18.2449 3.73353 18.0886 3.57725C17.9323 3.42097 17.7204 3.33317 17.4993 3.33317ZM3.33268 6.6665V4.99984H4.99935V10.6915C3.51268 10.0648 3.33268 7.749 3.33268 6.6665ZM9.99935 13.3332C8.16102 13.3332 6.66602 11.8382 6.66602 9.99984V3.33317H13.3327V9.99984C13.3327 11.8382 11.8377 13.3332 9.99935 13.3332ZM14.9993 10.6915V4.99984H16.666V6.6665C16.666 7.749 16.486 10.0648 14.9993 10.6915Z" fill="#E5C02B"/>
</g>
<defs>
<clipPath id="clip0_1001_27437">
<rect width="20" height="20" rx="3" fill="white"/>
</clipPath>
</defs>
</svg>
