<svg width="20" height="21" viewBox="0 0 20 21" fill="none" xmlns="http://www.w3.org/2000/svg">
<path fill-rule="evenodd" clip-rule="evenodd" d="M14.9834 0.719426C13.8964 0.269171 12.8412 0.550195 12.0906 1.21345C11.3575 1.86131 10.9095 2.869 10.9095 3.93963V4.8176C10.9095 7.4536 13.0464 9.5905 15.6824 9.5905H16.5604C17.631 9.5905 18.6387 9.14253 19.2865 8.40938C19.9498 7.65881 20.2308 6.60358 19.7806 5.51657C19.3351 4.44114 18.6822 3.46399 17.8591 2.64089C17.036 1.8178 16.0589 1.16488 14.9834 0.719426ZM12.2732 3.93963C12.2732 3.23572 12.5711 2.60874 12.9936 2.23533C13.3988 1.87731 13.9091 1.75048 14.4616 1.97931C15.3715 2.35623 16.1984 2.9087 16.8948 3.60516C17.5913 4.30163 18.1438 5.12845 18.5207 6.03843C18.7495 6.59088 18.6227 7.10123 18.2647 7.50638C17.8913 7.92894 17.2643 8.22682 16.5604 8.22682H15.6824C13.7995 8.22682 12.2732 6.70046 12.2732 4.8176V3.93963Z" fill="#5E5F60"/>
<path fill-rule="evenodd" clip-rule="evenodd" d="M9.54581 5.27216C9.54581 3.94543 8.42149 2.64857 6.91034 2.99004C5.85556 3.22838 4.84776 3.65898 3.93941 4.26592C2.48174 5.2399 1.34563 6.62427 0.674733 8.24394C0.00384063 9.86362 -0.171695 11.6459 0.170323 13.3653C0.51234 15.0847 1.35655 16.6642 2.5962 17.9038C3.83585 19.1434 5.41525 19.9877 7.13469 20.3297C8.85413 20.6717 10.6364 20.4962 12.2561 19.8253C13.8757 19.1544 15.2601 18.0183 16.2341 16.5606C16.841 15.6522 17.2716 14.6444 17.51 13.5897C17.8514 12.0785 16.5546 10.9542 15.2278 10.9542H13.4096C11.2757 10.9542 9.54581 9.22432 9.54581 7.09041V5.27216ZM7.2109 4.32019C7.65874 4.219 8.18212 4.59052 8.18212 5.27216V7.09041C8.18212 9.97746 10.5225 12.3179 13.4096 12.3179H15.2278C15.9095 12.3179 16.281 12.8413 16.1798 13.2891C15.9781 14.1816 15.6138 15.0344 15.1002 15.803C14.2761 17.0364 13.1047 17.9977 11.7342 18.5654C10.3637 19.1331 8.85565 19.2816 7.40073 18.9922C5.94582 18.7028 4.6094 17.9885 3.56047 16.9395C2.51154 15.8906 1.79721 14.5542 1.50781 13.0993C1.21841 11.6444 1.36694 10.1363 1.93462 8.7658C2.50229 7.39531 3.46362 6.22392 4.69704 5.39978C5.46563 4.88622 6.31837 4.52187 7.2109 4.32019Z" fill="#5E5F60"/>
</svg>
