<svg width="439" height="144" viewBox="0 0 439 144" fill="none" xmlns="http://www.w3.org/2000/svg">
<path d="M0 66.0456C0 31.5067 27.9993 3.50732 62.5383 3.50732H63.5389C64.0332 3.50732 64.4338 3.90799 64.4338 4.40224V61.8529C64.4338 64.6549 62.1623 66.9264 59.3603 66.9264H0.880824C0.39436 66.9264 0 66.5321 0 66.0456Z" fill="#F4F4F4"/>
<path d="M138 66.0456C138 31.5067 110.001 3.50732 75.4617 3.50732H74.4611C73.9668 3.50732 73.5662 3.90799 73.5662 4.40224V61.8529C73.5662 64.6549 75.8377 66.9264 78.6397 66.9264H137.119C137.606 66.9264 138 66.5321 138 66.0456Z" fill="#F4F4F4"/>
<path d="M62.5383 140.493C27.9994 140.493 -1.22389e-06 112.493 -2.73363e-06 77.9544L-2.77737e-06 76.9538C-2.79898e-06 76.4595 0.400664 76.0589 0.894912 76.0589L58.3456 76.0589C61.1476 76.0589 63.4191 78.3303 63.4191 81.1324L63.4191 139.612C63.4191 140.098 63.0248 140.493 62.5383 140.493Z" fill="#F4F4F4"/>
<path d="M72.5508 138.597C72.5508 104.058 100.55 76.0586 135.089 76.0586H136.09C136.584 76.0586 136.985 76.4593 136.985 76.9535V136.434C136.985 138.115 135.622 139.478 133.94 139.478H73.4316C72.9451 139.478 72.5508 139.083 72.5508 138.597Z" fill="#F4F4F4"/>
<path d="M178.428 58.434C174.336 58.434 170.575 57.4833 167.144 55.582C163.713 53.6393 160.985 50.9733 158.96 47.584C156.976 44.1533 155.984 40.2887 155.984 35.99C155.984 31.6913 156.976 27.8473 158.96 24.458C160.985 21.0273 163.713 18.3613 167.144 16.46C170.575 14.5587 174.336 13.608 178.428 13.608C182.561 13.608 186.323 14.5587 189.712 16.46C193.143 18.3613 195.85 21.0273 197.834 24.458C199.818 27.8473 200.81 31.6913 200.81 35.99C200.81 40.2887 199.818 44.1533 197.834 47.584C195.85 50.9733 193.143 53.6393 189.712 55.582C186.281 57.4833 182.52 58.434 178.428 58.434ZM178.428 47.15C181.528 47.15 183.967 46.1373 185.744 44.112C187.563 42.0867 188.472 39.3793 188.472 35.99C188.472 32.518 187.563 29.79 185.744 27.806C183.967 25.7807 181.528 24.768 178.428 24.768C175.287 24.768 172.827 25.7807 171.05 27.806C169.273 29.79 168.384 32.518 168.384 35.99C168.384 39.4207 169.273 42.1487 171.05 44.174C172.827 46.158 175.287 47.15 178.428 47.15ZM243.287 28.86C243.287 31.5053 242.667 33.9233 241.427 36.114C240.228 38.2633 238.389 39.9993 235.909 41.322C233.47 42.6033 230.473 43.244 226.919 43.244H220.905V58H208.753V14.29H226.919C230.432 14.29 233.408 14.91 235.847 16.15C238.327 17.39 240.187 19.1053 241.427 21.296C242.667 23.4867 243.287 26.008 243.287 28.86ZM225.741 33.572C229.171 33.572 230.887 32.0013 230.887 28.86C230.887 25.6773 229.171 24.086 225.741 24.086H220.905V33.572H225.741ZM262.801 14.29V58H250.649V14.29H262.801ZM312.687 58H300.535L284.353 33.572V58H272.201V14.29H284.353L300.535 39.028V14.29H312.687V58ZM334.241 14.29V58H322.089V14.29H334.241ZM364.598 58.434C360.506 58.434 356.744 57.4833 353.314 55.582C349.883 53.6393 347.155 50.9733 345.13 47.584C343.146 44.1533 342.154 40.2887 342.154 35.99C342.154 31.6913 343.146 27.8473 345.13 24.458C347.155 21.0273 349.883 18.3613 353.314 16.46C356.744 14.5587 360.506 13.608 364.598 13.608C368.731 13.608 372.492 14.5587 375.882 16.46C379.312 18.3613 382.02 21.0273 384.004 24.458C385.988 27.8473 386.98 31.6913 386.98 35.99C386.98 40.2887 385.988 44.1533 384.004 47.584C382.02 50.9733 379.312 53.6393 375.882 55.582C372.451 57.4833 368.69 58.434 364.598 58.434ZM364.598 47.15C367.698 47.15 370.136 46.1373 371.914 44.112C373.732 42.0867 374.642 39.3793 374.642 35.99C374.642 32.518 373.732 29.79 371.914 27.806C370.136 25.7807 367.698 24.768 364.598 24.768C361.456 24.768 358.997 25.7807 357.22 27.806C355.442 29.79 354.554 32.518 354.554 35.99C354.554 39.4207 355.442 42.1487 357.22 44.174C358.997 46.158 361.456 47.15 364.598 47.15ZM435.408 58H423.256L407.074 33.572V58H394.922V14.29H407.074L423.256 39.028V14.29H435.408V58ZM155.984 108.052C155.984 103.753 156.873 99.93 158.65 96.582C160.469 93.1927 163.031 90.568 166.338 88.708C169.645 86.8067 173.447 85.856 177.746 85.856C183.202 85.856 187.79 87.3233 191.51 90.258C195.23 93.1513 197.627 97.0987 198.702 102.1H185.62C184.835 100.447 183.739 99.186 182.334 98.318C180.97 97.45 179.379 97.016 177.56 97.016C174.749 97.016 172.497 98.0287 170.802 100.054C169.149 102.038 168.322 104.704 168.322 108.052C168.322 111.441 169.149 114.149 170.802 116.174C172.497 118.158 174.749 119.15 177.56 119.15C179.379 119.15 180.97 118.716 182.334 117.848C183.739 116.98 184.835 115.719 185.62 114.066H198.702C197.627 119.067 195.23 123.035 191.51 125.97C187.79 128.863 183.202 130.31 177.746 130.31C173.447 130.31 169.645 129.38 166.338 127.52C163.031 125.619 160.469 122.994 158.65 119.646C156.873 116.257 155.984 112.392 155.984 108.052ZM219.088 120.7H232.666V130H206.936V86.29H219.088V120.7ZM251.775 86.29V111.648C251.775 114.004 252.313 115.823 253.387 117.104C254.503 118.385 256.177 119.026 258.409 119.026C260.641 119.026 262.315 118.385 263.431 117.104C264.589 115.781 265.167 113.963 265.167 111.648V86.29H277.319V111.648C277.319 115.657 276.472 119.088 274.777 121.94C273.083 124.751 270.768 126.879 267.833 128.326C264.94 129.731 261.716 130.434 258.161 130.434C254.607 130.434 251.424 129.731 248.613 128.326C245.844 126.879 243.653 124.751 242.041 121.94C240.471 119.129 239.685 115.699 239.685 111.648V86.29H251.775ZM314.39 107.556C316.953 108.135 318.978 109.416 320.466 111.4C321.995 113.343 322.76 115.575 322.76 118.096C322.76 121.816 321.479 124.73 318.916 126.838C316.353 128.946 312.757 130 308.128 130H286.49V86.29H307.446C311.91 86.29 315.403 87.282 317.924 89.266C320.487 91.25 321.768 94.04 321.768 97.636C321.768 100.199 321.086 102.348 319.722 104.084C318.399 105.779 316.622 106.936 314.39 107.556ZM298.642 103.65H304.78C307.839 103.65 309.368 102.389 309.368 99.868C309.368 97.264 307.839 95.962 304.78 95.962H298.642V103.65ZM305.71 120.204C308.769 120.204 310.298 118.923 310.298 116.36C310.298 115.037 309.885 114.025 309.058 113.322C308.273 112.619 307.136 112.268 305.648 112.268H298.642V120.204H305.71Z" fill="white"/>
</svg>
