<svg width="21" height="20" viewBox="0 0 21 20" fill="none" xmlns="http://www.w3.org/2000/svg">
<path d="M7.13992 20.1499C6.93992 20.1499 6.76992 20.0799 6.62992 19.9399C6.48992 19.7999 6.41992 19.6299 6.41992 19.4299V16.2699H4.03992C3.38659 16.2699 2.78326 16.1066 2.22992 15.7799C1.67659 15.4532 1.23659 15.0132 0.909922 14.4599C0.583255 13.9066 0.419922 13.3032 0.419922 12.6499V4.6499C0.419922 3.99657 0.583255 3.39324 0.909922 2.8399C1.23659 2.28657 1.67659 1.84657 2.22992 1.5199C2.78326 1.19324 3.38659 1.0299 4.03992 1.0299H15.0399C15.6933 1.0299 16.2966 1.19324 16.8499 1.5199C17.4033 1.84657 17.8433 2.28657 18.1699 2.8399C18.4966 3.39324 18.6599 3.99657 18.6599 4.6499V12.6499C18.6599 13.3032 18.4966 13.9066 18.1699 14.4599C17.8433 15.0132 17.4033 15.4532 16.8499 15.7799C16.2966 16.1066 15.6933 16.2699 15.0399 16.2699H11.7799L7.61992 19.9699C7.48659 20.0899 7.32659 20.1499 7.13992 20.1499ZM4.03992 2.2699C3.61326 2.2699 3.21659 2.37657 2.84992 2.5899C2.48326 2.80324 2.19326 3.09324 1.97992 3.4599C1.76659 3.82657 1.65992 4.22324 1.65992 4.6499V12.6499C1.65992 13.0766 1.76659 13.4732 1.97992 13.8399C2.19326 14.2066 2.48326 14.4966 2.84992 14.7099C3.21659 14.9232 3.61326 15.0299 4.03992 15.0299H7.65992V18.2499L11.2999 15.0299H15.0399C15.4666 15.0299 15.8633 14.9232 16.2299 14.7099C16.5966 14.4966 16.8866 14.2066 17.0999 13.8399C17.3133 13.4732 17.4199 13.0766 17.4199 12.6499V4.6499C17.4199 4.22324 17.3133 3.82657 17.0999 3.4599C16.8866 3.09324 16.5966 2.80324 16.2299 2.5899C15.8633 2.37657 15.4666 2.2699 15.0399 2.2699H4.03992Z" fill="#888888"/>
</svg>
