<svg width="21" height="20" viewBox="0 0 21 20" fill="none" xmlns="http://www.w3.org/2000/svg">
<g clip-path="url(#clip0_1001_56974)">
<path d="M18.4799 6.60004L12.3399 0.460039L11.4599 1.34004L16.5399 6.42004H13.5399C11.7666 6.42004 10.0666 6.76671 8.43992 7.46004C6.86659 8.11337 5.47326 9.04671 4.25992 10.26C3.04659 11.4734 2.11326 12.8667 1.45992 14.44C0.766589 16.0667 0.419922 17.7667 0.419922 19.54H1.65992C1.65992 17.9267 1.97326 16.3867 2.59992 14.92C3.19992 13.4934 4.04659 12.2334 5.13992 11.14C6.23325 10.0467 7.49326 9.20004 8.91992 8.60004C10.3866 7.97337 11.9266 7.66004 13.5399 7.66004H16.5399L11.4599 12.74L12.3399 13.62L18.4799 7.48004C18.5999 7.36004 18.6599 7.21337 18.6599 7.04004C18.6599 6.86671 18.5999 6.72004 18.4799 6.60004Z" fill="#888888"/>
</g>
<defs>
<clipPath id="clip0_1001_56974">
<rect width="20" height="20" fill="white" transform="matrix(1 0 0 -1 0.539062 20)"/>
</clipPath>
</defs>
</svg>
