<svg width="25" height="24" viewBox="0 0 25 24" fill="none" xmlns="http://www.w3.org/2000/svg">
<path d="M12.5391 13C13.0913 13 13.5391 12.5523 13.5391 12C13.5391 11.4477 13.0913 11 12.5391 11C11.9868 11 11.5391 11.4477 11.5391 12C11.5391 12.5523 11.9868 13 12.5391 13Z" stroke="black" stroke-width="2" stroke-linecap="round" stroke-linejoin="round"/>
<path d="M12.5391 6C13.0913 6 13.5391 5.55228 13.5391 5C13.5391 4.44772 13.0913 4 12.5391 4C11.9868 4 11.5391 4.44772 11.5391 5C11.5391 5.55228 11.9868 6 12.5391 6Z" stroke="black" stroke-width="2" stroke-linecap="round" stroke-linejoin="round"/>
<path d="M12.5391 20C13.0913 20 13.5391 19.5523 13.5391 19C13.5391 18.4477 13.0913 18 12.5391 18C11.9868 18 11.5391 18.4477 11.5391 19C11.5391 19.5523 11.9868 20 12.5391 20Z" stroke="black" stroke-width="2" stroke-linecap="round" stroke-linejoin="round"/>
</svg>
