<svg width="24" height="24" viewBox="0 0 24 24" fill="none" xmlns="http://www.w3.org/2000/svg">
<path d="M12.1543 21.5C11.8209 21.5 11.5409 21.3733 11.3143 21.12L3.43428 12.38C3.28761 12.22 3.19761 12.03 3.16428 11.81C3.13095 11.59 3.15761 11.3767 3.24428 11.17C3.33095 10.9633 3.46761 10.8 3.65428 10.68C3.84095 10.56 4.04761 10.5 4.27428 10.5H8.03428V3.62C8.03428 3.31333 8.14428 3.05 8.36428 2.83C8.58428 2.61 8.84761 2.5 9.15428 2.5H15.1543C15.4609 2.5 15.7243 2.61 15.9443 2.83C16.1643 3.05 16.2743 3.31333 16.2743 3.62V10.5H20.0343C20.2476 10.5 20.4476 10.56 20.6343 10.68C20.8209 10.8 20.9609 10.9633 21.0543 11.17C21.1476 11.3767 21.1776 11.59 21.1443 11.81C21.1109 12.03 21.0209 12.22 20.8743 12.38L12.9943 21.12C12.7676 21.3733 12.4876 21.5 12.1543 21.5ZM4.55428 11.76L12.1543 20.18L19.7543 11.76H15.0343V3.74H9.27428V11.74L4.55428 11.76Z" fill="#888888"/>
</svg>
